# xmcd
#
# Track frame offsets: 
#        150
#        13927
#        29535
#        46690
#        56824
#        79686
#        96990
#        111584
#        126949
#
# Disc length: 1874 seconds
#
# Revision: 0
# Processed by: cddbd v1.5.2PL0 Copyright (c) Steve Scherf et al.
# Submitted via: ExactAudioCopy v1.1
#
DISCID=7a075009
DTITLE=Michael Kaeshammer - No Filter
DYEAR=2016
DGENRE=Blues
TTITLE0=Letter from the Road
TTITLE1=Nothing seems to reach you
TTITLE2=Late Night Train
TTITLE3=Westcoast Spirit
TTITLE4=Everybody catches love sometime
TTITLE5=Sweet Grace
TTITLE6=Back into the pen
TTITLE7=Talk to me baby
TTITLE8=Sunset
EXTD=
EXTT0=
EXTT1=
EXTT2=
EXTT3=
EXTT4=
EXTT5=
EXTT6=
EXTT7=
EXTT8=
PLAYORDER=
